<svg width="20" height="20" viewBox="0 0 20 20" fill="none" xmlns="http://www.w3.org/2000/svg">
<path fill-rule="evenodd" clip-rule="evenodd" d="M8.16324 16.566C7.48304 15.3353 7.22363 13.9722 7.33728 12.6572C5.77299 11.9008 4.54786 10.4942 3.98572 8.73396C-0.00527844 10.9704 0.680136 17.1891 5.05633 18.4143C6.36206 18.7798 7.80665 18.5912 9.02911 17.7876L8.16324 16.566ZM3.69516 7.33258C3.43923 4.77243 4.62522 2.23481 6.83416 0.900758L6.8333 0.899851C11.2945 -1.79286 16.7838 1.92012 16.3247 7.23369C19.1166 8.5859 20.5811 11.8543 19.7838 14.9661C18.6498 19.3911 13.6681 21.2928 10.0727 18.7245C9.89831 18.856 9.7161 18.9794 9.52525 19.0945L9.52612 19.0954C4.64071 22.0428 -1.2313 17.3224 0.226377 11.6379C0.701814 9.78325 1.93121 8.18715 3.69498 7.33276L3.69516 7.33258ZM4.99656 6.87367C6.70745 6.48098 8.49915 6.8519 9.93572 7.87762C11.4445 6.73854 13.2968 6.37668 15.0181 6.77209C15.0797 4.34429 13.5311 2.20205 11.3039 1.57914C8.02007 0.660438 4.84975 3.34479 4.99656 6.87367ZM10.9821 8.81628C11.6059 9.5137 12.0848 10.3535 12.3745 11.2613C12.4205 11.2359 12.4665 11.2087 12.5125 11.1815L12.5116 11.1806C13.6638 10.4859 14.4516 9.38395 14.8064 8.14957C13.5371 7.83668 12.163 8.03996 10.9821 8.81628ZM12.6643 12.6608C12.8491 14.5064 12.2826 16.3637 11.0974 17.7576C11.4931 18.0025 11.9173 18.1884 12.3589 18.3118C16.4574 19.4599 20.2472 14.9943 17.9993 10.6274C17.5204 9.76036 16.8393 9.09106 16.0533 8.64575C15.524 10.3888 14.3302 11.8535 12.6643 12.6608ZM10.0519 16.8951C9.11318 15.8803 8.60825 14.5082 8.64383 13.1177C9.52792 13.3218 10.4562 13.3281 11.3628 13.1195C11.4201 14.5017 10.9516 15.8666 10.0519 16.8951ZM11.1286 11.7502C10.3712 11.9316 9.59384 11.9225 8.85561 11.7412C9.0699 10.9948 9.44296 10.2973 9.9592 9.70876C10.4902 10.2838 10.8935 10.9875 11.1286 11.7502ZM8.91191 8.84531C8.31414 9.54816 7.87513 10.368 7.60878 11.245C6.49132 10.6111 5.63067 9.54184 5.23159 8.24398C6.48961 7.94198 7.81094 8.16422 8.91191 8.84531Z" fill="black"/>
</svg>
