<svg width="21" height="20" viewBox="0 0 21 20" fill="none" xmlns="http://www.w3.org/2000/svg">
<path d="M10.0838 6.57661e-06C9.96998 -0.000437897 9.85721 0.0216513 9.75197 0.0650006C9.64674 0.10835 9.55112 0.172102 9.47065 0.25258C9.39017 0.333059 9.32642 0.428672 9.28307 0.533907C9.23972 0.639142 9.21763 0.751917 9.21808 0.865729V12.4536L6.04151 9.37641C5.87749 9.21858 5.65772 9.132 5.43012 9.13556C5.20197 9.13916 4.98454 9.23303 4.82547 9.39662C4.66726 9.56065 4.58041 9.78063 4.5839 10.0085C4.58738 10.2363 4.68092 10.4536 4.84407 10.6127L9.47922 15.1131C9.64021 15.2696 9.85593 15.3572 10.0805 15.3572C10.3051 15.3572 10.5208 15.2696 10.6818 15.1131L15.3237 10.6127C15.4868 10.4536 15.5804 10.2363 15.5839 10.0085C15.5873 9.78063 15.5005 9.56065 15.3423 9.39662C15.2635 9.31472 15.1693 9.24921 15.0651 9.20385C14.9609 9.15848 14.8487 9.13416 14.7351 9.13229C14.6214 9.13041 14.5086 9.15102 14.4029 9.19292C14.2973 9.23483 14.201 9.2972 14.1195 9.37645L10.9429 12.4587V0.865772C10.9434 0.752526 10.9215 0.640301 10.8786 0.535505C10.8357 0.43071 10.7725 0.335396 10.6927 0.255006C10.613 0.174616 10.5182 0.110724 10.4137 0.0669787C10.3092 0.0232331 10.197 0.000447841 10.0838 6.57661e-06ZM4.79347 0.975204C4.59833 0.964424 4.40533 1.02024 4.24607 1.13352C1.5863 3.02242 0 6.08302 0 9.3444C0 14.898 4.52794 19.4164 10.0838 19.4164C15.6396 19.4164 20.1609 14.898 20.1609 9.3444C20.1609 6.08302 18.5813 3.02242 15.9215 1.13352C15.8291 1.06766 15.7246 1.02068 15.6141 0.995279C15.5035 0.969875 15.389 0.966545 15.2771 0.985478C15.1652 1.00441 15.0582 1.04524 14.9621 1.10561C14.866 1.16599 14.7828 1.24473 14.7173 1.33733C14.5869 1.52332 14.5352 1.75324 14.5733 1.97714C14.6115 2.20104 14.7365 2.40085 14.9211 2.53317C17.127 4.09975 18.4362 6.6401 18.4362 9.34441C18.4362 13.9654 14.7081 17.69 10.0838 17.69C5.45955 17.69 1.72471 13.9654 1.72472 9.34441C1.72472 6.6401 3.04063 4.09975 5.24655 2.53317C5.43088 2.40059 5.5555 2.20066 5.59333 1.97678C5.63117 1.75289 5.57918 1.52312 5.44865 1.33733C5.37367 1.23161 5.27583 1.14416 5.1624 1.08147C5.04897 1.01877 4.92287 0.98245 4.79347 0.975204Z" fill="black"/>
</svg>
