<svg width="20" height="20" viewBox="0 0 20 20" fill="none" xmlns="http://www.w3.org/2000/svg">
<path d="M18.3193 9.19813C17.9739 9.19813 17.694 9.47787 17.694 9.82318V12.652L13.7917 9.01206C13.5517 8.78877 13.1797 8.78794 12.9389 9.01123L2.64293 18.5929C1.8284 18.2684 1.25049 17.4732 1.25049 16.5451V4.51646C1.25049 3.30037 2.24022 2.3109 3.45665 2.3109H10.1806C10.526 2.3109 10.8058 2.03116 10.8058 1.68584C10.8058 1.34053 10.526 1.06079 10.1806 1.06079H3.45665C1.55109 1.06079 0 2.61057 0 4.5165V16.5452C0 18.0252 0.936583 19.2911 2.24761 19.7816C2.41617 19.9858 2.69764 20.0489 2.93595 19.9609C3.10533 19.9866 3.2797 19.9999 3.45572 19.9999H15.4877C17.3933 19.9999 18.9443 18.4501 18.9443 16.5442V9.82211C18.9443 9.47679 18.6645 9.19705 18.3191 9.19705L18.3193 9.19813ZM15.488 18.7499H4.30943L13.3641 10.3238L17.6933 14.3613V16.5443C17.6933 17.7604 16.7036 18.7499 15.4871 18.7499H15.488Z" fill="black"/>
<path d="M19.3804 3.18421H16.8205V0.625053C16.8205 0.279738 16.5407 0 16.1953 0C15.8499 0 15.5701 0.279738 15.5701 0.625053V3.18421H13.0102C12.6648 3.18421 12.385 3.46395 12.385 3.80927C12.385 4.15458 12.6648 4.43432 13.0102 4.43432H15.5701V6.99348C15.5701 7.3388 15.8499 7.61854 16.1953 7.61854C16.5407 7.61854 16.8205 7.3388 16.8205 6.99348V4.43432H19.3804C20.2065 4.40859 20.2065 3.20995 19.3804 3.18421Z" fill="black"/>
<path d="M3.53894 6.99271C3.53894 8.31254 4.61337 9.38676 5.93364 9.38676C9.11036 9.2556 9.10951 4.72999 5.93364 4.59888C4.61345 4.59888 3.53894 5.6728 3.53894 6.99271ZM7.07764 6.99271C7.07764 7.62359 6.5645 8.13657 5.93347 8.13657C4.41567 8.07348 4.41567 5.91103 5.93347 5.84877C6.56452 5.84877 7.07764 6.36186 7.07764 6.99271Z" fill="black"/>
</svg>
