<svg width="20" height="20" viewBox="0 0 20 20" fill="none" xmlns="http://www.w3.org/2000/svg">
<path d="M20 9.99909C20 8.05255 19.8527 6.10419 19.5618 4.20129C19.2527 2.25839 17.7409 0.745522 15.7927 0.436403C11.9973 -0.145468 8.00727 -0.145468 4.20364 0.436403C2.25 0.745522 0.737273 2.27475 0.438182 4.24129C0.147273 6.12965 0 8.0671 0 9.99909C0 11.9456 0.147273 13.894 0.438182 15.796C0.746364 17.7498 2.27636 19.2627 4.24273 19.5618C6.13091 19.8527 8.06818 20 10 20C10.6591 20 11.3 19.9809 11.9218 19.9536V19.9491C11.9964 19.9454 12.0718 19.9382 12.1445 19.9164C13.42 19.5309 15.3 18.7135 17.0064 17.0061C18.7127 15.2987 19.5309 13.4194 19.9164 12.1438C19.9373 12.0738 19.93 12.0011 19.9336 11.9293L19.9536 11.9302C19.9909 11.2401 20 10.5964 20 9.99909ZM4.51818 17.7643C3.35455 17.588 2.41636 16.6615 2.23455 15.5169C1.95818 13.7103 1.81818 11.8538 1.81818 9.99909C1.81818 8.15892 1.95818 6.31512 2.23545 4.51677C2.41182 3.35303 3.33818 2.41477 4.48273 2.23293C8.09636 1.68015 11.9082 1.68015 15.5118 2.23293C16.6745 2.41749 17.58 3.32303 17.7645 4.48132C18.0418 6.28784 18.1818 8.14438 18.1818 9.99909C18.1818 10.29 18.1791 10.5946 18.1718 10.9092C17.5018 10.9101 16.8555 11.0092 16.2391 11.1801C16.3127 10.7919 16.3636 10.3991 16.3636 9.99909C16.3636 6.48968 13.5091 3.63488 10 3.63488C6.49091 3.63488 3.63636 6.48968 3.63636 9.99909C3.63636 13.5085 6.49091 16.3633 10 16.3633C10.4 16.3633 10.7927 16.3124 11.1809 16.2388C11.0109 16.8506 10.9127 17.4925 10.9109 18.1571C8.83182 18.1998 6.62 18.088 4.51818 17.7643ZM12.3218 13.8922C11.6255 14.3149 10.8273 14.545 10 14.545C7.49364 14.545 5.45455 12.5057 5.45455 9.99909C5.45455 7.4925 7.49364 5.45322 10 5.45322C12.5064 5.45322 14.5455 7.4925 14.5455 9.99909C14.5455 10.8264 14.3155 11.6247 13.8927 12.3211C13.2918 12.7621 12.7627 13.2912 12.3218 13.8922ZM15.7209 15.7205C14.7264 16.7152 13.6618 17.3516 12.7436 17.758C12.95 15.0868 15.0882 12.9485 17.7582 12.743C17.3518 13.6612 16.7155 14.7259 15.7209 15.7205Z" fill="black"/>
<path d="M8.1818 9.99926C8.68387 9.99926 9.09089 9.5922 9.09089 9.09008C9.09089 8.58796 8.68387 8.18091 8.1818 8.18091C7.67972 8.18091 7.27271 8.58796 7.27271 9.09008C7.27271 9.5922 7.67972 9.99926 8.1818 9.99926Z" fill="black"/>
<path d="M11.8181 9.99926C12.3202 9.99926 12.7272 9.5922 12.7272 9.09008C12.7272 8.58796 12.3202 8.18091 11.8181 8.18091C11.3161 8.18091 10.9091 8.58796 10.9091 9.09008C10.9091 9.5922 11.3161 9.99926 11.8181 9.99926Z" fill="black"/>
<path d="M9.99994 12.7266C11.0027 12.7266 11.8181 11.911 11.8181 10.9082H8.18176C8.18176 11.911 8.99722 12.7266 9.99994 12.7266Z" fill="black"/>
</svg>
