<svg width="20" height="20" viewBox="0 0 20 20" fill="none" xmlns="http://www.w3.org/2000/svg">
<path d="M17.9247 0H2.07529C0.931153 0 0 0.931154 0 2.07529V17.9247C0 19.0688 0.931153 20 2.07529 20H17.9247C19.0688 20 20 19.0688 20 17.9247V2.07529C20 0.931154 19.0688 0 17.9247 0ZM18.4151 17.9247C18.4151 18.1947 18.1947 18.4151 17.9247 18.4151H2.07529C1.80536 18.4151 1.58494 18.1947 1.58494 17.9247V2.07532C1.58494 1.80539 1.80535 1.58497 2.07529 1.58497H17.9247C18.1946 1.58497 18.4151 1.80538 18.4151 2.07532V17.9247Z" fill="#0C0C0C"/>
<path d="M15.0718 4.29443H4.92815C4.48982 4.29443 4.13568 4.64857 4.13568 5.0869V6.35486C4.13568 6.79319 4.48982 7.14733 4.92815 7.14733C5.36648 7.14733 5.72062 6.79319 5.72062 6.35486V5.87938H9.2075V14.1211H8.57352C8.13519 14.1211 7.78105 14.4752 7.78105 14.9135C7.78105 15.3519 8.13519 15.706 8.57352 15.706H11.4264C11.8647 15.706 12.2189 15.3519 12.2189 14.9135C12.2189 14.4752 11.8647 14.1211 11.4264 14.1211H10.7924V5.87938H14.2793V6.35486C14.2793 6.79319 14.6334 7.14733 15.0718 7.14733C15.5101 7.14733 15.8643 6.79319 15.8643 6.35486V5.0869C15.8643 4.64857 15.5101 4.29443 15.0718 4.29443Z" fill="#0C0C0C"/>
</svg>
